/* XPM */
static char *ac87ef38cc4749359cc21d72532a8058QCaupPDgpqqjf3g1[] = {
/* columns rows colors chars-per-pixel */
"64 64 215 2 ",
"   c None",
".  c #010101",
"X  c #0B0B05",
"o  c #0B0B0B",
"O  c #040706",
"+  c #110D05",
"@  c #1B0D00",
"#  c #011A00",
"$  c #081B07",
"%  c #171207",
"&  c #15140B",
"*  c #1C150A",
"=  c #1B190D",
"-  c #1E1001",
";  c #010018",
":  c #191919",
">  c #141514",
",  c #221A0B",
"<  c #291E0C",
"1  c #271D14",
"2  c #2E0906",
"3  c #022A01",
"4  c #073B07",
"5  c #15260F",
"6  c #2A210D",
"7  c #33260E",
"8  c #39290D",
"9  c #232313",
"0  c #2A2916",
"q  c #272A18",
"w  c #2B2C19",
"e  c #292715",
"r  c #352912",
"t  c #372B12",
"y  c #32321D",
"u  c #3D3217",
"i  c #020022",
"p  c #010129",
"a  c #232324",
"s  c #2A292B",
"d  c #393926",
"f  c #343435",
"g  c #3E3E3C",
"h  c #233023",
"j  c #5B1009",
"k  c #730B02",
"l  c #452D0B",
"z  c #47320F",
"x  c #493817",
"c  c #543D15",
"v  c #643B0A",
"b  c #752922",
"n  c #045704",
"m  c #155B15",
"M  c #036403",
"N  c #036A03",
"B  c #0B690B",
"V  c #127013",
"C  c #3E413E",
"Z  c #226F22",
"A  c #59441B",
"S  c #6A410E",
"D  c #6A4714",
"F  c #7B4E13",
"G  c #7D5A1E",
"H  c #79541B",
"J  c #6F501A",
"K  c #4B4B2B",
"L  c #464528",
"P  c #5C4921",
"I  c #58542C",
"U  c #48483B",
"Y  c #5A5A33",
"T  c #575731",
"R  c #664E21",
"E  c #695726",
"W  c #765C27",
"Q  c #6C5B32",
"!  c #7E6129",
"~  c #7F6026",
"^  c #68673B",
"/  c #05054F",
"(  c #050557",
")  c #050558",
"_  c #484849",
"`  c #5A5B59",
"'  c #53594C",
"]  c #737446",
"[  c #656566",
"{  c #7E7D7D",
"}  c #747874",
"|  c #7B5552",
" . c #D13015",
".. c #EB3A1A",
"X. c #90661F",
"o. c #85662A",
"O. c #996921",
"+. c #97742D",
"@. c #9A7935",
"#. c #826930",
"$. c #AC7B26",
"%. c #A57625",
"&. c #A27F38",
"*. c #F6441F",
"=. c #F64430",
"-. c #887451",
";. c #EF705E",
":. c #4C914C",
">. c #609061",
",. c #6CA165",
"<. c #AD8638",
"1. c #AB8437",
"2. c #B48B3A",
"3. c #B88E3B",
"4. c #BE923B",
"5. c #B3822C",
"6. c #C4933A",
"7. c #E6A534",
"8. c #FCB93E",
"9. c #F6B23A",
"0. c #8A8A54",
"q. c #989553",
"w. c #8C8345",
"e. c #A68C43",
"r. c #AA9246",
"t. c #AC9649",
"y. c #AE9A4D",
"u. c #B4994A",
"i. c #B19955",
"p. c #A4A45D",
"a. c #AAA95F",
"s. c #B5A554",
"d. c #BFB25E",
"f. c #9A9A64",
"g. c #86867D",
"h. c #A39678",
"j. c #ACAC62",
"k. c #B4B365",
"l. c #CA9E43",
"z. c #D4A444",
"x. c #D9A846",
"c. c #C6B15A",
"v. c #CFAC50",
"b. c #E3AE47",
"n. c #E6B14A",
"m. c #EEB74B",
"M. c #EFB84C",
"N. c #EEB447",
"B. c #FBBB43",
"V. c #F3BA4C",
"C. c #FABE4B",
"Z. c #E6B855",
"A. c #CBBD63",
"S. c #C2B065",
"D. c #D5BE61",
"F. c #FBC04E",
"G. c #E8C35D",
"H. c #FBC250",
"J. c #F7CD5A",
"K. c #C6C16B",
"L. c #D5CA6D",
"P. c #C9C972",
"I. c #DDD574",
"U. c #D6D67B",
"Y. c #D9D97B",
"T. c #FBDB6B",
"R. c #FBD767",
"E. c #E6DA76",
"W. c #F4D66E",
"Q. c #FCEA7B",
"!. c #FFE474",
"~. c #E6E17C",
"^. c #8C8C8D",
"/. c #969696",
"(. c #A4A199",
"). c #A4A4A4",
"_. c #AAAAA5",
"`. c #B7B7B8",
"'. c #DEBF84",
"]. c #E7B1A0",
"[. c #B4C7B7",
"{. c #DADA88",
"}. c #CCC590",
"|. c #F9D888",
" X c #E6E683",
".X c #EAE681",
"XX c #EBEB85",
"oX c #F1ED85",
"OX c #F9E883",
"+X c #FBF284",
"@X c #F4F48A",
"#X c #FAFA8E",
"$X c #FBF78A",
"%X c #FFE49E",
"&X c #FEFE91",
"*X c #F8F89A",
"=X c #EFF089",
"-X c #C8CEB8",
";X c #FDDEA8",
":X c #FEE7A7",
">X c #F8F6B7",
",X c #FCEBB0",
"<X c #C6C6C6",
"1X c #DBDBDC",
"2X c #DBE5D5",
"3X c #FFFBD9",
"4X c #F6F4CE",
"5X c #E4E4E4",
"6X c #ECECEB",
"7X c #E7EAE7",
"8X c #FEECE9",
"9X c #F8F6E8",
"0X c #FDFCF4",
"qX c #FEFEFE",
"wX c #F4F4F4",
/* pixels */
"                                                                                                                                ",
"                                                                                                                                ",
"                                                                                                                                ",
"                                                                                                                                ",
"                                                      . . . .                                                                   ",
"                                                    t A A c A 9                                                                 ",
"                                              + + + o.F.V.H.M.x +   % + +                                                       ",
"                                            . ! l.l.b.H.H.H.H.x.@.. o.z.l.R .                                                   ",
"                                          6 E 6.C.J.J.H.C.H.C.J.x.W %.6.F.2.E *                                                 ",
"                                        . r M.H.C.H.C.C.J.H.C.C.F.H.O.F V.H.b., .                                               ",
"                                        . r m.F.H.H.H.H.C.C.H.H.H.C.O.F m.H.x., .                                               ",
"                                        . r m.H.H.H.C.C.J.C.H.H.H.C.O.F V.H.b., .                                               ",
"                                        . 7 m.C.H.H.H.H.C.H.H.C.H.H.O.X.b.z.<.,                                                 ",
"                                        . 7 7.V.H.H.H.H.H.H.H.H.H.C.O.v N.W O                                                   ",
"                                            z $.C.!.W.C.C.H.C.H.H.F.O.X.C.W .                                                   ",
"                                            . D %.f.A.W.T.R.R.T.L.&.D c &.R .                                                   ",
"                                              o o O ] XXOXOXOXOXS.1 : > >                                                       ",
"                                            . ' {   = t  .*.*.*... .j >                                                         ",
"                                            . ` /.).f . j k k k k k 2 O                                                         ",
"                                            . _ } ^.' w w q q q e e q q                                                         ",
"                                              o o o ] XXXX.X.X.XXX XXXA.& . .                                                   ",
"                                            . ^ p.p.P.#X#X#X#X#X#X#X*XXXa.p.q.&                                                 ",
"                                            L k.&X&X#X#X#X#X#X#X#X#X#X#X&X&XXXY d                                               ",
"                                        X d  X#X#X#X#X#X#X#X$X#X#X#X#X#X#X#X#X@Xq.X                                             ",
"                                  . . O 0.U.@X#X#X#X#X#X#X#X#X#X#X#X#X#X#X#X#X#X~.k.y . .                                       ",
"                                  A x . j.#X#XQ.T.$X#X#X#X#X$XK.A.#X#X#X#XQ.T.$X#X=Xy = J r                                     ",
"                                , 2.1.9 k.#X~.J.F.@X#X#X#X@X~.+.#.~.$X#X#XR.F.E.=X=XK P x.A &                                   ",
"                            . A z.x I U.@XI.G c.Q.#X#X#X#XK.H K.K.H A.&X#X$XE.o.t.&X Xq., 1.1.O                                 ",
"                          % ! 3.M.7 L &Xc.r.s.I.&X&XL.1.e.t.s.~.~.s.t.r.<.L.#Xd.y.t.oXj.. 2.n.+.x                               ",
"                        . % x.H.V.A I K.! H L.I.I.I.y.G G t.#X#X#X#Xt.G G y.I.I.e.v s.q.7 4.H.H.R .                             ",
"                        . * z.H.C.9.%.% l S S S S S r.oX=X@X#X#X#X#X=X~.oXr.S D S v , c 7.C.H.H.R .                             ",
"                      . R 2.V.H.H.8.$.O -.D.A.E - @ w Y Y.#X#X#X#X#Xq.K K 7 6 s.A.c.9 z 9.C.H.H.l.+.%                           ",
"                      . o.H.H.H.C.8.$.O j.&X&Xq.L . a ` {.#X#X#X#X#XT o _ _ Y XX&X@Xy z 9.B.H.F.H.x.% .                         ",
"                      . ! H.H.C.C.9.%.& j.&X&X#XU.& } 7X*X#X#X#X#X#XY a 1X>X@X#X#XXXd c 7.C.H.H.H.x.% .                         ",
"                      . ! H.H.H.V.A I K.XX&X#X&XY.= : U {.#X#X#X#X@XY o f f.#X#X#X@XU.q.8 4.H.H.H.z.% .                         ",
"                    , E 3.H.H.F.M.r L #X&X#X#X&XU.= . + P.#X#X&X#X#XY . . w.&X#X#X#X&Xj.. <.H.H.H.n.o.x                         ",
"                  . < n.H.H.H.H.M.r L #X@XOX+X#X{.d a s {.=XU.U. X*X] a a f.*X$X+X+X#Xj.X <.H.H.H.H.H.o..                       ",
"                  . < n.H.H.H.H.M.r L @XH.B.B.;X0X7X5X7X0X_.= = ' wX6X5X5X6X9XH.B.B.Q.j.O 2.H.H.H.H.H.o..                       ",
"                  . 6 n.H.H.H.H.M.r L T.T.!.;X3XqXqXqXqXqX1X/./.`.qXqXqXqXqX0X,XOXT.!.y.O <.H.H.H.F.H.! .                       ",
"                  . < b.F.H.H.H.N.r r l.E.*XqXqXqXqXqXqX<X1XqXqX6X<X7XqXqXqXqXqX3XOXv.#.O 5.F.H.F.F.F.! .                       ",
"                  . , 7.B.C.F.B.7.8 . o e.|.0XqXqXqXqX6Xf [ wXwX`.: _.qXqXqXqX0X,XZ.x O O $.8.C.F.C.9.G .                       ",
"                      z %.B.B.$.z       z Q |.4XqXqXqXqX<X^._ _ [ `.5XqXqXqX0X:Xi.d       l J 9.8.7.A 7                         ",
"                      . A %.%.J .         6 @.h.).).<X3X3X}.T T 0.3X3X4X_.).(.e.E .         6 O.%.X.+                           ",
"                          . . .             . . O : ] XX X X X X XXX=Xk.a o . . O             . . .                             ",
"                                              . : <Xg.e 9 q q q a q w U <X[ O                                                   ",
"                                              ` ^.wX^.. [ | k k b { s s wX`.} :                                                 ",
"                                            s ).qX1X} 5 [.].=.=.;.2X' h <X6X6XC a                                               ",
"                                        . f 5XwX5Xs 4 M V ,.8X8X[.Z B n = /.qX6X^..                                             ",
"                                      . W i.>X:X'.% 3 N N Z ` >.:.N N n . -.%X>X}.@.7                                           ",
"                                      . r.!.$XD.&.5 n N N m g m N N N n 3 E l.oXQ.G.r .                                         ",
"                                      . j.&X#X] X n n M M >.5X:.M M M M n 3 , Y.#XoXy .                                         ",
"                                      O j.$XT.E . # # # # 5 g 5 # # # # # # * D.Q.@Xy .                                         ",
"                                      . ] q.@.z . ; i i i i ; i i i i i i ; + o.e.q.q                                           ",
"                                        . . . . O ( ) ) ( ( ( ( ( ( ( ( ) p . . . .                                             ",
"                                              . O ( ) ) ( ) ) ) ) ) ( ( ) p .                                                   ",
"                                              . . p p p p p p p p p i p i ; .                                                   ",
"                                              . O 6 0 w O . . . . . , 7 w + .                                                   ",
"                                              . = l.W.Y.0 .       . @.G.XX] .                                                   ",
"                                              . , n.!.=Xw .       . &.R.#X] .                                                   ",
"                                                = &.i.p.0         . ! t.j.^ .                                                   ",
"                                                  O . O             . O O                                                       ",
"                                                                                                                                ",
"                                                                                                                                ",
"                                                                                                                                "
};
