/* XPM */
static char *result[] = {
/* columns rows colors chars-per-pixel */
"64 64 150 2 ",
"   c #161EE7",
".  c #1624E7",
"X  c #1822E7",
"o  c #172AE7",
"O  c #182AE7",
"+  c #1923E8",
"@  c #1C2CE9",
"#  c #1730E7",
"$  c #1832E7",
"%  c #1839E7",
"&  c #1C32EA",
"*  c #153FEF",
"=  c #183BEE",
"-  c #2234EC",
";  c #233BEC",
":  c #2A3DEE",
">  c #1640EF",
",  c #1843EF",
"<  c #1749EF",
"1  c #184AEF",
"2  c #1751EF",
"3  c #1852EF",
"4  c #1759EF",
"5  c #1859EF",
"6  c #1B45F0",
"7  c #1D4DF0",
"8  c #1B55F0",
"9  c #165BF7",
"0  c #185AF6",
"q  c #1D5EF8",
"w  c #2741EA",
"e  c #2843EB",
"r  c #205EEF",
"t  c #3E5AEE",
"y  c #2940F0",
"u  c #224DF1",
"i  c #2E4CF1",
"p  c #314EF3",
"a  c #2153F0",
"s  c #2A55F2",
"d  c #225BF0",
"f  c #2D5CF3",
"g  c #3351F1",
"h  c #355DF2",
"j  c #3A5AF3",
"k  c #1561F7",
"l  c #1863F7",
"z  c #186BF7",
"x  c #1F64F8",
"c  c #1873F7",
"v  c #2261F6",
"b  c #2963F2",
"n  c #2161F8",
"m  c #2866F9",
"M  c #246AF9",
"N  c #2C6BF8",
"B  c #3561F3",
"V  c #3965F3",
"C  c #3669F2",
"Z  c #3C6BF5",
"A  c #2C70F9",
"S  c #3673F9",
"D  c #3C76FA",
"F  c #4365F3",
"G  c #4A6EF5",
"H  c #426DF8",
"J  c #4677F4",
"K  c #4870F4",
"L  c #4270F9",
"P  c #467DFA",
"I  c #4E7EFC",
"U  c #5477F4",
"Y  c #5B76F3",
"T  c #567EF6",
"R  c #547DFA",
"E  c #4082FA",
"W  c #4E82FA",
"Q  c #4C89FA",
"!  c #5E82F4",
"~  c #5483FB",
"^  c #5B87FC",
"/  c #5A8BFB",
"(  c #5E93FB",
")  c #6285F5",
"_  c #6C85F3",
"`  c #698CF5",
"'  c #728CF4",
"]  c #788BF3",
"[  c #6990F7",
"{  c #6393FB",
"}  c #6996F9",
"|  c #6698FB",
" . c #699AFD",
".. c #7494F9",
"X. c #729DFA",
"o. c #7D9DF9",
"O. c #6FA2FF",
"+. c #73A2FE",
"@. c #78A7FC",
"#. c #7AA9FC",
"$. c #8B98F4",
"%. c #959DF4",
"&. c #83ABFB",
"*. c #86B1FC",
"=. c #8AB3FD",
"-. c #85B8FF",
";. c #8ABBFF",
":. c #92B3FC",
">. c #97BAFC",
",. c #99BEFB",
"<. c #A1AFF9",
"1. c #A6B5FA",
"2. c #A0BBFB",
"3. c #AABDFA",
"4. c #8EC0FF",
"5. c #95C3FE",
"6. c #9AC3FE",
"7. c #97CAFF",
"8. c #9AC9FF",
"9. c #A4C4FD",
"0. c #ACC7FF",
"q. c #A7CEFF",
"w. c #ACCAFD",
"e. c #B5C7FC",
"r. c #B4CDFD",
"t. c #B9CBFD",
"y. c #A4D3FF",
"u. c #ACD3FF",
"i. c #AFD9FF",
"p. c #B1D2FE",
"a. c #BCD4FE",
"s. c #B3D9FF",
"d. c #BADBFF",
"f. c #C3D6FC",
"g. c #C4DAFD",
"h. c #CAD9FD",
"j. c #C3E3FF",
"k. c #CCE3FF",
"l. c #D2E6FF",
"z. c #DCE7FE",
"x. c #D3E9FF",
"c. c #DBEDFF",
"v. c #DCF0FF",
"b. c #E4ECFE",
"n. c #E6F3FF",
"m. c #EBF5FF",
"M. c #EFF8FF",
"N. c #F2F6FF",
"B. c #F4FAFF",
"V. c #FFFFFF",
/* pixels */
"X   - R 7.k.V.V.V.V.V.V.V.V.V.V.c.u.} w X X X   X X X     +     +   X   +   + + X X X       X X X X   X X X X X X X X X X X X X ",
"X X i +.s.N.V.V.V.V.V.V.V.V.V.V.V.x.5.^ ; X X X X X X + +   + + + + X X X X +   X X X X X X X X X X X X X X X X X X X X X X X X ",
"X - ^ 8.n.V.V.V.V.V.V.V.V.V.V.V.V.V.c.7.{ -                 X X   +   X X X X X X X X X   X X X X X X X X X X X X X X X X X X X ",
"X -  .y.m.V.V.V.V.V.V.V.V.V.V.V.V.V.B.l.t...Y Y Y Y Y Y j - O X   + +   X X X X X X X X + X X X X X X X X X X X X X   X X X   X ",
"  @ ~ 5.c.V.V.V.V.V.V.V.V.V.V.V.V.V.V.V.V.N.m.n.m.m.n.x.8.:.o.G : @ o X X   + X     X X X X     X X X X X X X X X X X X X X X X ",
"O O ; G *.j.m.V.V.V.V.V.V.V.N.a.j.m.V.V.V.V.V.V.V.V.V.V.B.V.N.l.h.&.! t @ X + + O X X O + + + O X X X + X O X X X O + + X X X X ",
"O O X & F ! ,.x.x.N.V.V.N.l.w.;.s.m.V.V.V.V.V.V.V.V.V.V.V.V.V.V.V.c.i.+.t - O O O O O O @ O O O + + O O O O O O O O O O O O + O ",
"O O O O . o : t F _ ] ] _ K I 4.l.V.V.V.V.V.V.V.V.V.V.V.V.V.V.V.V.V.l.7.^ ; + O O O O O O O O O O O O O O O O O O O O + O O O O ",
"O O O O O O O O . o . . . o i +.i.M.V.V.V.V.V.V.V.V.V.V.V.V.V.V.V.B.j.-.H @ O . O O O . O O O O O O O O X O O O O O X O O O O O ",
"O O O O O X O O O O O O o o O g ! o.a.c.m.V.V.V.V.V.V.V.V.V.B.v.l.:.` F ; o O O O O O O O O O O O O O X O O O O O O O O O O O O ",
"O X O O O O O O . o o O O O o o O @ F ! ' %.1.f.f.g.g.f.t.<.$.) U e O O o o o o O O O O O O O O O X O O O O X O O X O O O X X O ",
"# O O # O O # @ @ @ O # # o o @ O # # O o o $ w w w w e ; $ O o # O O @ O @ o @ O O O @ O # O O $ $ O $ O $ $ X O $ $ O $ O $ $ ",
"# $ $ # # $ $ $ # # @ $ # $ # $ $ $ $ @ $ $ $ # # # # # O # $ $ $ $ $ $ $ # # % $ $ $ # $ # # # $ $ $ $ $ $ $ $ $ $ $ $ $ $ $ $ ",
"$ # # $ # # $ $ $ # # $ # # # $ $ $ $ $ $ $ $ $ # # $ # $ % $ $ $ $ $ $ # $ # # $ # # $ $ $ @ $ $ $ O $ $ $ $ $ $ $ $ O $ $ $ $ ",
"$ $ $ $ @ # $ $ $ $ $ $ $ $ $ # $ $ # # $ $ # # $ $ $ $ # # $ $ $ $ # $ $ # $ # # # $ # $ $ $ $ $ $ $ $ $ O $ $ $ O $ $ $ $ $ $ ",
"$ $ $ $ $ $ $ $ $ $ $ $ $ $ # $ $ $ # # @ $ # # @ $ $ $ # # @ $ $ # $ @ # $ $ @ $ $ # $ $ $ $ $ $ $ $ $ $ $ $ $ $ $ $ $ $ $ O $ ",
"$ $ $ $ $ $ $ $ @ # # O # $ $ $ @ # # # $ @ # # @ # $ @ # # # $ $ $ $ $ # $ $ @ # O # O # # O @ O $ $ $ $ $ @ O # $ $ @ # O # % ",
"$ $ $ $ % $ % $ % $ % % % % $ % % % # % % % % % % $ % % % % # % % $ % $ % $ % % % % % % % % % % $ $ % $ % & % % % % $ % % % # % ",
"% % % % % % % % % % % % % % % % % % % % % % % % % % % % % % % % % % % % % % % % % % % % % % % % % % % % % % % % % % % % % % % % ",
"% % % % % % % % % % % % % % % % % % % % % % % % % % % % % % % % % % % % % % % % % % % % % % % % % % % % % % % % % % % % % % % % ",
"% % % % % % % % % % % % % % % % % % % = % % % % % % % $ % % % % % % % % % % % $ % % % % % % % % % % % % % % & % % % % % % % % % ",
"= = = = % % = % = = = = & = = = = & = = % = % = = = = = = = % = = = = % = = = = = % = = = = = & % % = = = % = = = = = = % % = = ",
"= = = = = = = = = = = = = = = = = = = = = = = = = = = = = = % = = = & = = = = = = = = = = = = = % = = = = = = = = = * = = = = = ",
"= = = = = 6 = = = = = 6 = = = = = = * = = * = = 6 = = = = = > = = * * = = * = 6 = = = = 6 = = * , = = = = = = 6 = = = = = = * = ",
"6 > 6 > , , , , , 6 > > , , , , 6 * 6 * , , , , , 6 > > , , , > * 6 6 * = > > > > > > > > > > > , > , , > 6 , , = 6 > > 6 > > , ",
"= 6 * 6 , , , , , = , , , , , , * 6 * 6 , , , , , = , , , , * > 6 * 6 * > > s V V V V B , > * 6 , 6 = , > = , , 6 6 6 > > > , , ",
", > 6 * > > , , , , , , > > , , , > 6 * , , > * , , , , , , * * * * 6 s K [ ,.k.k.k.k.p.X.T s 7 , , , , , , , , * = 6 6 , , > , ",
", > > > 6 = , , , , , , 6 = , , , > > > > > > 6 , * > > , u h h s Z #.g.n.B.V.V.V.V.V.V.B.N.g.*.H u , , , , , , 6 * > > , , > , ",
", , , , , , , , , = > , , , , , , , , , , , 6 > u g V G ..w.b.z.9.=.s.n.V.V.V.V.V.V.V.V.V.V.c.=.H 6 > > , , , , , , , , , , , , ",
", 1 1 , 1 , 1 , 1 6 1 , 1 , 1 , 1 , 1 , 1 , 6 u I 6.l.N.B.V.V.V.V.B.B.x.N.V.V.V.V.N.b.h.g.=.^ f , 1 , 1 , 1 , 1 , 1 , , , 1 1 , ",
"1 1 1 1 1 1 1 1 1 1 1 1 1 1 1 1 1 1 1 1 1 1 1 a ~ 5.z.m.B.V.V.V.V.V.V.V.V.V.N.z.w.X.Z f r 1 1 1 1 1 1 1 1 1 1 1 1 1 1 1 1 1 1 1 ",
"1 1 1 1 1 1 1 1 1 1 1 1 1 1 1 1 1 1 1 1 1 1 1 1 7 a Z { &.3.e.f.f.f.f.t.3.&.} Z d 1 , 1 1 1 1 1 1 1 1 1 1 1 1 1 1 1 1 1 1 1 1 1 ",
"1 1 1 1 1 1 1 1 1 1 1 1 1 1 1 1 1 1 1 1 1 1 1 1 1 1 1 1 1 1 1 a 8 u a 7 1 < < < 1 1 1 1 1 1 1 1 1 1 1 1 1 1 1 1 1 1 1 1 1 1 1 1 ",
"1 1 1 1 1 1 1 1 1 1 1 1 1 1 1 1 1 1 1 1 1 1 1 1 1 1 1 1 1 1 1 1 < 1 < 1 1 1 1 1 1 1 1 1 1 1 1 1 1 1 1 , 1 1 1 1 1 1 1 1 1 1 1 1 ",
"1 1 1 1 1 1 1 1 1 1 1 1 1 1 1 1 1 1 1 1 1 1 1 1 1 1 1 1 1 1 1 1 1 1 1 1 1 1 1 1 1 1 1 1 1 1 1 1 1 1 1 1 1 1 1 1 1 1 1 1 1 1 1 1 ",
"1 3 3 3 3 3 3 3 3 3 3 3 3 3 3 3 1 3 3 3 3 3 3 3 3 2 3 3 3 3 3 3 3 3 3 3 3 3 3 3 3 3 3 3 3 3 3 3 3 3 3 3 3 3 3 3 3 3 3 3 3 3 3 1 ",
"3 3 3 3 3 3 3 3 3 3 3 3 3 3 3 3 3 3 3 3 3 3 3 3 3 3 3 3 3 3 3 3 3 3 3 3 3 3 3 3 3 3 3 3 3 3 3 3 3 3 3 3 3 3 3 3 3 3 3 3 3 3 3 3 ",
"3 3 3 3 3 3 3 3 3 3 3 3 3 3 3 3 3 3 3 3 3 3 3 3 3 3 3 3 3 3 3 3 3 3 3 3 3 3 3 3 3 3 3 3 3 3 3 3 3 3 3 3 3 3 3 3 3 3 3 3 3 3 3 3 ",
"3 3 3 3 3 3 3 3 3 3 3 3 3 3 3 3 3 3 3 3 3 3 3 3 3 3 3 3 3 3 3 3 3 3 3 3 3 3 3 3 3 3 3 3 3 3 3 3 3 3 3 3 3 2 2 2 2 3 3 3 3 3 3 3 ",
"3 3 3 3 3 3 3 3 3 3 3 3 3 3 3 3 3 3 3 3 3 3 3 3 3 3 3 3 3 3 3 3 3 3 3 3 3 3 3 3 3 3 3 3 3 3 3 3 3 2 2 2 3 d d d d 5 2 2 2 2 3 3 ",
"3 3 3 3 3 3 5 3 3 3 3 3 3 3 3 3 3 3 3 3 3 3 3 5 3 3 3 3 3 3 3 3 3 3 3 3 3 3 3 3 3 3 3 3 3 3 3 5 r C J X.=.w.h.g.g.6.&.( Z b 5 3 ",
"5 5 5 5 5 5 5 5 5 5 5 5 5 5 5 5 5 5 5 5 5 5 5 5 5 5 5 5 5 5 5 5 5 5 5 5 4 4 5 5 5 4 5 5 5 r b { r.b.m.V.V.V.V.V.V.V.V.N.n.w.} b ",
"5 5 5 5 5 5 5 5 5 5 5 0 5 5 5 5 5 5 5 5 5 5 5 5 5 5 8 0 5 5 5 5 5 5 5 5 4 4 0 8 4 b ( 6.a.h.h.h.x.B.V.V.V.V.V.V.V.V.V.V.m.c.l.h.",
"0 9 0 5 0 0 0 0 0 0 0 0 0 0 4 0 0 0 5 9 5 0 0 0 0 0 0 0 0 0 0 0 0 0 0 0 0 0 0 0 0 W 6.c.m.V.V.V.V.V.V.V.V.V.B.B.B.V.V.V.V.V.V.V.",
"0 0 9 0 0 0 0 0 9 9 9 9 0 0 0 0 9 9 9 9 0 0 0 0 0 9 9 0 0 0 0 9 0 0 0 0 0 9 0 9 9 x N S P | #.9.r.w.w.r.w.=.+.d.M.V.V.V.V.V.V.V.",
"0 0 0 9 0 0 0 q n d n n d q q 0 0 9 9 9 0 0 0 0 9 0 9 9 9 0 0 0 0 0 0 0 0 0 0 0 0 0 9 9 9 9 0 0 0 0 0 0 q 0 b { 9.z.m.B.N.B.B.N.",
"9 0 v Q @.9.p.a.h.h.h.h.h.a.r.r.:. .D d 9 9 9 9 9 9 0 0 0 0 0 0 0 0 0 0 0 0 0 0 0 0 0 0 9 0 0 0 0 0 0 0 0 0 0 0 x S P W W W ~ I ",
"l 9 W q.N.V.V.V.V.V.V.V.V.V.V.V.V.B.u./ M 9 l l q l l l 9 l l 0 k l k l 9 l l l 9 k l l 0 9 l l 9 l l l k k 9 k k k 9 k 9 k k 9 ",
"l l M E ( @.*.>.9.w.w.w.w.0.3.=.#.+.Q A z k l l l l l l l l l l l l l l l l l l l l l l l l l l l l l l l l l l l l l l l l l l ",
"l l l 9 k l k k l z x l l z z k k 9 k k l l l l l l l l l l l l l l l l l l l l l l l l l l l l l l l l l l l l l l l l l l l l ",
"l l l l l l l l l l l l l l l l l l l l l l l l l l l l l l l l l l l l l l l l l l l l l l l l l l l l l l l l l l l l l l l l ",
"l l l l l l l l l l l l l l l l l l l l l l l l l l l l l l l z l l l l l l l l l l l l l l l l l l l l l l l l l l l l l l l l ",
"l l l l l l l l l l l 0 l l l l l l l l l l l l z l 0 l l l 0 k l l l l l l l l l l l l l l l l l l l l l l l l l l l l l l l l ",
"z z z z z z z l z z z z z z z z z z z z z z z z z z z z z z z z z z z z z l z z z z z z z l z z z z z z z z l z z z z z z z z z ",
"z z z z z z z z z z z z z z z z z z z z z z z z z z z z z z z z z z z z z z z z z z z z z z z z z z z z z z z z z z z z z z z z ",
"z z z z z z z z z z z z z z z z l z z z z z z z z z z z z z z z z z z z z z z z z z z z z z z z z z z z z z z z z z z z z z z z ",
"z z z z z z z z z z z z z z z z z z z z z z z z z z z z z z z z z z z z z z z z z z z z z z z z z z z z z z z z z z z z z z z z ",
"z z z z z z z z z z z z z z z z z z z z z z z z z z z z z z z z z z z z z z z z z z z z z z z z z z z z z z z z z z z z z z z z ",
"z z c z z z z c z z z z z c z z c z z z z z z c z c c z z z c z z z z c z z z z z c z c z z z c z z c z z z c z z z z z z z z c ",
"c c c c c c c c c c c c c c c c c c c c c c c c c c c c c c c c c c c c c c c c c c c c c c c c c c c c c c c c c c c c c c c c ",
"c c c c c c c c c c c c c c c c c c c c c c c c c c c c c c c c c c c c c c c c c c c c c c c c c c c c c c c c c c c c c c c c ",
"c c c c c c c c c c c c c c c c c c c c c c c c c c c c c c c c c c c c c c c c c c c c c c c c c c c c c c c c c c c c c c c c ",
"c c c c c c c c c c c c c c c c c c c c c c c c c c c c c c c c c c c c c c c c c c c c c c c c c c c c c c c c c c c c c c c c ",
"c c c c c c c c c c c c c c c c c c c c c c c c c c c c c c c c c c c c c c c c c c c c c c c c c c c c c c c c c c c c c c c c "
};
