/* XPM */
static char *result[] = {
/* columns rows colors chars-per-pixel */
"64 64 37 1 ",
"  c #3F9B36",
". c #37963F",
"X c #39973D",
"o c #3B993A",
"O c #5FAD0F",
"+ c #5CAB13",
"@ c #53A61D",
"# c #56A819",
"$ c #58A918",
"% c #61AE0C",
"& c #66B106",
"* c #6BB400",
"= c #64B009",
"- c #469F2D",
"; c #419C32",
": c #4DA225",
"> c #49A129",
", c #51A520",
"< c #2A8F4E",
"1 c #2C934D",
"2 c #2E9B4E",
"3 c #339443",
"4 c #309248",
"5 c #309F4E",
"6 c #298E50",
"7 c #2A9153",
"8 c #2C955A",
"9 c #2E985F",
"0 c #31A44D",
"q c #35AC4C",
"w c #37B24B",
"e c #2E9A62",
"r c #309E66",
"t c #319F68",
"y c #32A26C",
"u c #34A672",
"i c #35A976",
/* pixels */
"6225221171666666<6666<666>******%366666-**********%3666666666666",
"61wwwwqwqqqq0002766666664O*******:6666<o**********-<666666666666",
"660wwwwwwwwwwwwq166<66663@++%&&**%366664O********:<<666<66666<36",
"662qwwwwwwwwwww266666666<6<113.o;-X<6666:*******-<<<66666666<>$6",
"6660wwwwwwwwww07666666666666666666666666o******:4<666<66666<>*&3",
"6661qwwwwwwwww166666666666666625217666661+****:<6<666666661>***>",
"66660wwwwwwww56666<66666<666662wwqwq01666:***,<6666666666<>****O",
"1<6<7wwwwwwwq766666666666666667qwwww06666o**@16666666666<>******",
" 66660wwwwww2666666666664X;36660wwwq16666<%@1666717666663+&*****",
"@16661qwwww06666666<4X-@%&%36660www566666< <66661q566666<<o-O&**",
"%.66660wwwq76<6666X#%*****@66665ww0666<6666666660ww26666<66643,+",
"X366767www2166<3664+******;66661qq76666666666661qwwq1666<666666<",
"666666<5wq<666;@7<63%****=36666602666666<666<662wwwwq76666666666",
"66666661q16663%=3666X=***#6666661<6666<<6666661qwwwww07666666666",
"666666667<661$**o6666 =**;66666666666<6<66666<2wwwwwww0666666666",
"6666666666<<>***,66666-*&3666666666661o<666667qwwwwwqqq466666666",
"ettttt86666o&***%466666,$<<666666<<X:%+4666661005221716666336668",
"iiiiiu77663+****&X666661366666663-+&**,666666666666666666o+-6667",
"yiiiie666<@******>666666666663;#&*****o66666666666666661>&*-6666",
"9iiiy7666;*******+666666664o@%*******O4666666666666666X+***>6666",
"6yiu96663=*******%36666663+**********,666666666666661-%****-6666",
"6eiy66<1+*********;666666<>**********o666<66666666<3@******-6666",
"67y8666.+%&*******@6666666<-********%46<66666666<63+*******-6666",
"6676<66<<33;>@+%&*%3666666<<-&******,6666666666666<X:%*****-6666",
"66666666666666<3o;-366666666<-&*****;6666666<7866666<1-$&**-6666",
"666666<666666666666<666666666<-&***=466666667ty66666<661o,%-6666",
"66666666666666666666661<6666666-&**,66666668uiu6666666666633666<",
"66666666667666666666<7001<666666-&*;666666euuii966<6666<66666666",
"6136666666te6666666666qwq76666666-+466666eiiiiie6666717766666666",
"<>@<666668uu8666666661wwww2166666<366668yiiiiiit66661q01<6666666",
"-*%4666669uiu866666<67wwwww011666666668uiiiiiiiu66661qww57<666<6",
"&*&o66666tiiut66666665wwwwwwq76666666euuiiiiiiuu8<661wwww076666X",
"***>66667uiiiir6666665wwwwwwww2666668yiiiiiiiiiie<662wwwww0176X%",
"***+<6669iiiiiie66666qwwwwwwwwq26666<68tuiiiiiiir<662wwq056<63+*",
"***%3666riiiiiiu96667qwwwwwwq216666666667eyuiiiiu6660w0216664+**",
"**** 666uiiiiiuut6661wwwwq576666666666666668ruiiu66671666661#***",
"****,6<9uuurre9776662qq016666666666666666666669tu96666666663$&**",
"=***O167e87666<6666612666666<666666<6666666666<68666666666<613-@",
"3;,%=366666666666666<666666666666666o366666666666666666666666666",
"6664o4666666666666666666666666666666>=,3666666<66666666<16666666",
"666666666666o>:>>->>X666666671<666<6;**&@o<6<<<66666661q56<66666",
"666666666666o&*****&o66666660q7666663&****$;<<66666662qw06666666",
"6766666666661@*****@76666662wq1666661%******+36666665www0<666117",
"577<666666666.&***&.6666<62www066666<$******@166661qwwww076662qq",
"wwq01766666661@***:6666671wwwwq766666:*****,<66662qwwwwwq66667qw",
"wwqwwq02176666.&*=3666661qwwwww266666;****,<66175wwwwwwwq<66660w",
"wwwwwwwwq166661:*>6666660wwwwww066666X&**,<66661wwwwwwwwq166662w",
"wwwwwwww0666666X+3666610wwwwwwwq16666<%*-<<<666615qwwwwwq766661q",
"wwwwwww06666666<36666670wwwwwwww26666<#:666666666615wwwww1666665",
"wwwwww566666666666666666120qqwww06666<3166666666666675qww2666662",
"qwwww56661.66<66666666666667250wq16666666666634666666615q2666666",
"qwww56666>$166666666666666666661276<666666664+-66666666671666666",
"2ww56666o&&X6666666666666<666666<<6666666666X&&;6666666666666666",
"1q266663+**@<6666666666666666666666667716666:**%.666666666666666",
"6166666:***&3666<69866<6666666666<664q566664+***+366666666666666",
"666666o&****:666<8uutr98666666666<75ww066663&****#16668766666666",
"666664O*****%36666uiiiuuy966666661qwwwq6666>******:166eue8666666",
"66666,*******-6666tiiiiue6661o<<70wwwww7661+****&O$366eiiut97666",
"66664@O%&****+1666eiiiu96666 %3616150ww266X&&+,-o416669iiiiiye76",
"6666<<<33o;>,@.6667uiu96666<+*:<66666121<<3 34666<66667iiiiiiiy7",
"6666666666666<<6666yy766666 **=366666666666666666666667iiiiiit86",
"666666666666666666697666661+***>666666X .16666666666667yiiiue766",
"666<66666666666666666666<<;****=366666o&&O@-.3<<6<66666yiit76666",
"66666666666666666666666661+*****>666611O****&O#-.<66666tu9666666"
};
