/* XPM */
static char *a3565b2e17844f9ff6cba85e2d37d8c8PSyV1uIM6XMcTlLm[] = {
/* columns rows colors chars-per-pixel */
"64 64 227 2 ",
"   c None",
".  c #010101",
"X  c #090502",
"o  c #0E0903",
"O  c #0F0E0B",
"+  c #140C04",
"@  c #160E05",
"#  c #1C1207",
"$  c #091909",
"%  c #221406",
"&  c #2C1908",
"*  c #261809",
"=  c #331D09",
"-  c #301A05",
";  c #231F11",
":  c #1B211C",
">  c #3B220B",
",  c #322A16",
"<  c #36301B",
"1  c #38311B",
"2  c #2C2615",
"3  c #353534",
"4  c #42250C",
"5  c #4D2B0D",
"6  c #452A0E",
"7  c #542F0F",
"8  c #57300F",
"9  c #4C3417",
"0  c #5A3814",
"q  c #663A13",
"w  c #6B3C13",
"e  c #613711",
"r  c #713F14",
"t  c #463C23",
"y  c #5A3E26",
"u  c #0B520B",
"i  c #054D07",
"p  c #24550D",
"a  c #355E10",
"s  c #057009",
"d  c #58440D",
"f  c #6E4417",
"g  c #7A4516",
"h  c #754517",
"j  c #79501E",
"k  c #526819",
"l  c #6A4E2F",
"z  c #776636",
"x  c #696325",
"c  c #444F45",
"v  c #406D46",
"b  c #706F6F",
"n  c #FA2614",
"m  c #FA2B14",
"M  c #F12D14",
"N  c #FB3314",
"B  c #FA3B13",
"V  c #E03A17",
"C  c #DD3F24",
"Z  c #824917",
"A  c #844B18",
"S  c #8A4E19",
"D  c #864A15",
"F  c #954918",
"G  c #8D521B",
"H  c #82531D",
"J  c #93541B",
"K  c #9D5A1D",
"L  c #98551C",
"P  c #81440F",
"I  c #A45C1D",
"U  c #A95F1E",
"Y  c #AD461D",
"T  c #936C1A",
"R  c #AB611F",
"E  c #B3641F",
"W  c #865827",
"Q  c #8F5628",
"!  c #B0582A",
"~  c #97662B",
"^  c #976834",
"/  c #8D7434",
"(  c #A56221",
")  c #AC6621",
"_  c #B46621",
"`  c #B46B24",
"'  c #BB6A22",
"]  c #BE6B26",
"[  c #BB7927",
"{  c #A77938",
"}  c #FB5F0F",
"|  c #FB4311",
" . c #F84811",
".. c #FB5610",
"X. c #ED4612",
"o. c #FC660E",
"O. c #FD7A0C",
"+. c #FC6711",
"@. c #EB6B0E",
"#. c #DD4126",
"$. c #C46E23",
"%. c #C57225",
"&. c #CD7325",
"*. c #CB7B29",
"=. c #C57729",
"-. c #D27626",
";. c #D57827",
":. c #DA7B27",
">. c #DD7D29",
",. c #D57D29",
"<. c #CA7F31",
"1. c #E27F29",
"2. c #E47D26",
"3. c #8A7A43",
"4. c #967248",
"5. c #AC7748",
"6. c #9B7D63",
"7. c #CF624E",
"8. c #17A819",
"9. c #598268",
"0. c #719E70",
"q. c #B48331",
"w. c #9E971F",
"e. c #FD850C",
"r. c #FD940A",
"t. c #FD9A09",
"y. c #E0810D",
"u. c #FDA808",
"i. c #FEB508",
"p. c #D7862A",
"a. c #DA8A30",
"s. c #D28A33",
"d. c #E4812A",
"f. c #E9852B",
"g. c #E58B2E",
"h. c #EC8B2E",
"j. c #EB9529",
"k. c #EC9928",
"l. c #E79627",
"z. c #E58A32",
"x. c #ED8F30",
"c. c #E18F38",
"v. c #E49232",
"b. c #EC9333",
"n. c #E2943C",
"m. c #E69833",
"M. c #F29432",
"N. c #F69B35",
"B. c #FA9F37",
"V. c #FA9F38",
"C. c #F88F30",
"Z. c #DBA824",
"A. c #F6AB2B",
"S. c #F5B427",
"D. c #FABE27",
"F. c #FAB52C",
"G. c #FABD28",
"H. c #F3BB25",
"J. c #FAA136",
"K. c #FBAD31",
"L. c #FBA139",
"P. c #EBAD25",
"I. c #FECB04",
"U. c #FFCD08",
"Y. c #FFC507",
"T. c #FFD405",
"R. c #FFDC03",
"E. c #EAD504",
"W. c #FFE501",
"Q. c #FFED00",
"!. c #FFF100",
"~. c #FAC126",
"^. c #A08E4D",
"/. c #BA8D43",
"(. c #BB964C",
"). c #AF9454",
"_. c #BAA459",
"`. c #A98D63",
"'. c #9EB379",
"]. c #9B8966",
"[. c #C7974A",
"{. c #C48952",
"}. c #E09841",
"|. c #E7964F",
" X c #EE9A4C",
".X c #C9A858",
"XX c #DDAC54",
"oX c #D8A550",
"OX c #D0B25F",
"+X c #EBA448",
"@X c #FAB14B",
"#X c #E1B35A",
"$X c #EAB95B",
"%X c #F1BA5B",
"&X c #F1A545",
"*X c #C19D7C",
"=X c #CDB563",
"-X c #D5BC66",
";X c #DBBD65",
":X c #DBBB6A",
">X c #E2BD63",
",X c #E4B476",
"<X c #DCC26A",
"1X c #E5C96D",
"2X c #F6C966",
"3X c #E9CD70",
"4X c #EDD273",
"5X c #F3D574",
"6X c #F6D976",
"7X c #FADA76",
"8X c #FADC78",
"9X c #F9D773",
"0X c #F8D06E",
"qX c #FEE07A",
"wX c #679A84",
"eX c #8FB498",
"rX c #ADAAA9",
"tX c #EEB889",
"yX c #D8B696",
"uX c #B6CBB8",
"iX c #DAC89D",
"pX c #F3CEAD",
"aX c #CED2D1",
"sX c #E8DFD6",
"dX c #FFE3C3",
"fX c #F2ECE7",
"gX c #CCEECE",
/* pixels */
"                                                                    1.1.$.A Z L >.                                              ",
"                                                                  f.h.h.>.) ) ` f.h.                                            ",
"                                                              B.f.x.N.V.B.B.V.V.J.x.;.J                                         ",
"                                                          V.K.F.S.A.V.V.V.B.B.B.B.M.b.a.` Z                                     ",
"                                                          J.F.~.~.F.B.J.B.B.B.B.B.V.J.L.*.K                                     ",
"                                                      V.J.G.G.~.~.F.B.B.B.B.B.V.J.V.B.V.J.m.L D                                 ",
"                                                      V.J.~.~.~.~.F.B.B.B.B.B.J.B.B.B.B.L.b.J j                                 ",
"                                                      &XJ.G.~.~.G.F.B.L.B.B.B.V.B.V.J.B.B.N.R L                                 ",
"                                                    B.J.B.J.F.D.J.J.L.B.B.B.B.J.J.B.B.B.J.N.d.E A                               ",
"                                                    x.N.B.J.J.K.J.J.J.B.B.B.M.x.B.J.B.B.M.h.f.E A                               ",
"                                                    ;.g.B.B.B.B.V.J.B.B.J.B.h.l.m.m.b.B.h.d.f.E g                               ",
"                                                    p T h.B.B.B.B.B.B.V.k.f.M.s.a p k p.f.d.f.G +                               ",
"                                                    s T f.N.B.B.B.B.B.B.N.h.q.x i i p R *.d.f.g .                               ",
"                                                    8.w.f.B.B.B.B.B.B.V.B.B.x u i u p g E d.f.Z .                               ",
"                                                    gX<XN.B.B.V.L.B.B.B.B.L.iXeX$ v 0.H E d.d.D .                               ",
"                                                    uX:XB.V.J.B.B.B.J.B.B.L.dXaX: 9.eXH E f.f.D .                               ",
"                                                    u w.N.N.V.B.B.B.B.B.L.L.dXaXv wXeXW _ f.f.Z .                               ",
"                                        Q.        p.w.P.F.V.J.B.B.B.L.B.L.L.{.].0.`.{.%.;.1.2.A .                               ",
"                                        Q.      &.p.D.D.F.J.J.B.B.J.V.B.L.V.] ^ '.[.2.-.:.1.1.A .                               ",
"                                    Q.!.        Z R H.F.V.V.V.B.V.B.J.V.V.V.V.M.d.a.;.J ' 1.f.A .             1.d.1.            ",
"                            Y.Q.!.W.e.O.        A L l.N.B.h.M.B.B.B.B.J.N.x.=.` R R R ' -.;.r 6           d.1.x.g._             ",
"                          U.U.Q.W.U. .n         A L &.b.N.f.M.B.N.N.v.b.z.-.G h ^ Q L >.d.&.% .         d.f.f.M.a.g             ",
"                    Y.U.Q.Q.Q.Q.t.B                 G *.L.B.V.B.h.&.G J F S & 3 fX,X:.1.1.&.# . X q I 1.M.N.B.x.] #             ",
"                    i.R.Q.W.R.Q.t.m                   ,.h.=.=.%.E ! Y Y ! 6.y l tX|.:.' -.&.# & f I %.x.B.B.B.M.p.H 7           ",
"                  B u.!.R.T.I.R.r.m                   d.;.J g g S Y C C 7.rX4.I 1.;.$.J ' -.& w d.1.h.N.B.B.B.b.v.b.f .         ",
"                  u.T.T...u.R.} |                           % % E $.S F Q Q $.:.d.r = %.:.1.$.-.d.d.d.f.f.f.f.f * * %           ",
"                O.T.Q.I.B +.r.B n                             @ U ' ` ` _ R _ _ S w w ;.1.1.f.1.d.1.d.1.I S S 4 . .             ",
"              N } Q.Q.Y.B m m m m                               S ` N.N.z.;.I w o S f.f.d.d.1.1.>.d.1.;.> . .                   ",
"            m t.I.Q.r. .m +.r.B m       Q.                      &.E K 7 = = K %.E &.z.%X2X%Xz.$.K :.U =                         ",
"            N i.!.Q.r...N e.Y.| m       Q.                      j.p.~ 0 6 4 _ f.f.c.+X9X8X9X+X*.K I g .                         ",
"            N i.!.Q.Q.I.B r.R.| m m m m                       B.D.F.V.N.b.1.1.1.1.%X8X8X8X8X8X%X;.- .                           ",
"        n o.u.R.Q.Q.!.W.i.T.T.| n m                           j.S.D.F.F.K.M.f.;.I XXqX8X8X8X8X0X#X, .                           ",
"        m +.!.Q.!.Q.W.W.!.Q.T.| m m                           ;.A.~.~.~.G.J.x.;.K [.1X;X3X8X6XqX4Xl 2                           ",
"        m +.Q.Q.Q.Q.R.U.Q.R.i.B m                             J j.K.~.~.F.B.B.B.N.` S S [.qXqX6X6X5X^..                         ",
"        n o.T.W.!.Q.t.e.W.u.+.N m                               ` p.K.K.K.J.*.*.B.` G =.~ z 1XqX6XqX)..                         ",
"        n ..i.W.Q.E.@.X.I.O.m m                                 A ( s.s.c.B.( L v.` K a.j < <XqXqXqX_.;                         ",
"            B i.E.T F Y B N m                                   S 0 @ + 0 N.) S J %.' % z 1X5X8X6XqX5X<X1 .                     ",
"            m e.y.A g F M m                                   g 6 7 w q h H 8 4 6 q h z _.8X8X8XqX6XqX6Xt .                     ",
"              N V J G F M               Q     Q             L A % q f.f.R o O @ O O < 3XqXqX8X8X6X6XqX5Xt .                     ",
"              C.C.P.p.;.            Z `.sX4.5.sX`.Z     1.1.g.v.p.a.N.N.g.' (._.=X=X-X9X8X8X8X9X6XqX6X9Xd .                     ",
"              L.K.G.j.d.            4.rXpX<.5.pX{.I   &.d.h.M.J.J.J.B.J.N.C.$X4X8X8XqX8X8X8X8X8X8X8X6X3XW 8                     ",
"              B.K.D.j.1.          O rXyX2.2.f.2.d.-.S ' f.N.B.B.J.B.B.V.B.L.2X8X8X8X8X8X8X8X8X8X8X8X5X;Xn.%.A                   ",
"              f.j.~.k.1.            3 z S.S.k.f.1.&.S ' f.B.B.B.J.B.B.B.J.J.2X8X8X8X8X8X8X8X8X8X8X8X4X<Xn._ *                   ",
"              1.h.F.j.1.            . d D.~.S.j.f.;.I $.f.N.B.B.V.B.V.B.L.@X2X8X8X8X8X8X8X8X8X8X8X8X0XXXc.R X                   ",
"              1.f.N.h.d.            . d D.~.~.~.j.d.2.1.f.N.B.B.B.B.B.B.@X9X8X8X8X8X8X8X8X8X8X8X8X8X%Xg.f.( X                   ",
"              d.d.h.M.b.d.          8 G j.S.~.~.j.1.d.d.d.h.M.B.B.B.B.B.@X8X8X8X8X8X8X8X8X8X8X8X8X3X.XI ;.R X                   ",
"              d.d.1.M.N.h.f.        D I ;.P.~.~.j.1.1.1.1.1.h.N.N.N.B.B.@X8X8X8X8X8X8X8X8X8X8X8X5X>X[.L &.R X                   ",
"              1.d.d.M.L.N.h.1.d.d.      J Z.~.~.j.1.d.d.1.d.1.1.d.x.B.B.@X8X8X8X8X8X8X8X8X8X8X3X;Xc.1.>.f.) X                   ",
"                &.) ,.M.N.M.M.M.h.1.f.S > =.P.D.k.2.2.%._ 2.1.f.1.f.x.x.&X6X8X8X8X8X8X8X4X3X3X1X;X[ ] 1.A 7                     ",
"                  J $.f.N.B.B.B.M.d.f.I % L p.H.j.2.d.I g $.$.%.;.>.1.a.+X6X6X6X6X6X6X8X3X<X<X=X_.~ U >.4 .                     ",
"                  :.>.d.f.M.B.B.B.B.V.M.a.6 5 d.f.f.f.q o + + % r _ g.XX:X<X<X<X<X<X<X<X<X<X1X3.# _ 2.1.> .                     ",
"                  d.$.' 1.h.x.x.M.L.V.V.J.G f h g g g r q q q w I _ ] q.(.<X<X<X<X<X<X<X<X=X/ l w %.$.g =                       ",
"                    A J ;.f.g.1.x.N.V.N.N.x.R + o o o A f.1.1.d.1.$.Q A { -X;X<X<X<X<X=X=X_.* w f.;.J .                         ",
"                        J q.#Xz.1.f.f.f.f.d.;.' ' E ' -.f.1.1.1.2.n.OX.X=X<X;X<X<X1X_.< ; , I &.:.7 %                           ",
"                        g / 3.] s.}.}.c.1.1.1.d.2.f.d.1.d.n.}.}.n.XX<X<X<X<X<X=X^.3.z 0 5 e -.$.S *                             ",
"                          . + r { -X-XoX1.d.d.d.d.d.d.d.z.;X;X<X<X;X-X-X-X-X-X^.X X & *.1.1.d.D X                               ",
"                                t 1 1 0 ( [.#X#X#X#X#X#X>X<X<X<X1X.X~ t 1 1 1 0 I U _ >.1.1.1.E e                               ",
"                                  . . & A (._.^.^.^.^.^.^.^.^.^.^./ Z # . . . = :.f.d.1.d.d.h.*.(                               ",
"                                          G q X . X X X . X X X X X         . = :.1.1.1.1.d.N.V.N.L D                           ",
"                                                                              % 5 U f.f.h.M.V.M.h.&.E D                         ",
"                                                                                . g ' _ p.B.N. X|.,.[ 4.                        ",
"                                                                                  o o X G B.f.tXfX5.`.fXc .                     ",
"                                                                                        7 f q l b t y b 3                       ",
"                                                                                        . . . . . . . .                         "
};
