/* XPM */
static char *_4d9e138539c439ff024ba114b72ecabIUAbNs9DkxWPU83W[] = {
/* columns rows colors chars-per-pixel */
"64 64 211 2 ",
"   c None",
".  c #160E0D",
"X  c #17100F",
"o  c #18100F",
"O  c #180F10",
"+  c #191011",
"@  c #1F1518",
"#  c #171010",
"$  c #21161A",
"%  c #241A1C",
"&  c #281D1F",
"*  c #261A21",
"=  c #2A1D24",
"-  c #2D1F29",
";  c #2D2224",
":  c #2F202B",
">  c #32232C",
",  c #352A2C",
"<  c #35282B",
"1  c #352532",
"2  c #382736",
"3  c #3A2B34",
"4  c #3D2B3B",
"5  c #372C31",
"6  c #3B3133",
"7  c #402D3E",
"8  c #44353B",
"9  c #43393C",
"0  c #46363A",
"q  c #432E42",
"w  c #453144",
"e  c #493545",
"r  c #4C3C42",
"t  c #4B344B",
"y  c #4A3947",
"u  c #513C4B",
"i  c #503F43",
"p  c #4F3751",
"a  c #523A54",
"s  c #593E5C",
"d  c #563D59",
"f  c #4C4247",
"g  c #544247",
"h  c #534549",
"j  c #5A494E",
"k  c #5C4B53",
"l  c #5C425C",
"z  c #594855",
"x  c #5B5155",
"c  c #5F555A",
"v  c #624D54",
"b  c #634D5B",
"n  c #6A545C",
"m  c #65545A",
"M  c #5D4261",
"N  c #614565",
"B  c #644668",
"V  c #664A6A",
"C  c #6A4C6E",
"Z  c #664966",
"A  c #6A5A64",
"S  c #73596A",
"D  c #6C4D72",
"F  c #704F77",
"G  c #74537A",
"H  c #7B5B7D",
"J  c #755874",
"K  c #6D5172",
"L  c #75676D",
"P  c #796877",
"I  c #6F646A",
"U  c #80666F",
"Y  c #856A77",
"T  c #8A747D",
"R  c #91757F",
"E  c #7A5682",
"W  c #7D5A84",
"Q  c #7B5784",
"!  c #7F6582",
"~  c #815D86",
"^  c #825C8B",
"/  c #865F90",
"(  c #846285",
")  c #86628C",
"_  c #8A658D",
"`  c #896B8A",
"'  c #887683",
"]  c #927484",
"[  c #987A88",
"{  c #8A6294",
"}  c #8E659A",
"|  c #8D6795",
" . c #926C95",
".. c #91669C",
"X. c #936A9B",
"o. c #986F9E",
"O. c #9B749D",
"+. c #9A7696",
"@. c #907190",
"#. c #956AA1",
"$. c #996DA4",
"%. c #9D6FAA",
"&. c #9C73A3",
"*. c #9F71AC",
"=. c #9974A2",
"-. c #A47BA5",
";. c #A174AD",
":. c #A77CAB",
">. c #A475B2",
",. c #AA7CB4",
"<. c #AD7CBB",
"1. c #A778B6",
"2. c #B07FBF",
"3. c #B07CC2",
"4. c #8D8289",
"5. c #96838E",
"6. c #968893",
"7. c #9E929B",
"8. c #A1828E",
"9. c #A58592",
"0. c #A9889A",
"q. c #B3919E",
"w. c #A2959F",
"e. c #9F88A1",
"r. c #AD83AC",
"t. c #A688A2",
"y. c #B38AAB",
"u. c #B28BA8",
"i. c #AB9DAA",
"p. c #A797A3",
"a. c #B494A1",
"s. c #BA96A6",
"d. c #BE9AAB",
"f. c #B998A9",
"g. c #AD83B6",
"h. c #B285B5",
"j. c #B383BD",
"k. c #B48ABC",
"l. c #BA8CBC",
"z. c #B78CB3",
"x. c #BC92B5",
"c. c #BE93BA",
"v. c #AEA1AA",
"b. c #B4A4B3",
"n. c #B2A5AF",
"m. c #C39FAE",
"M. c #C195BB",
"N. c #C59ABB",
"B. c #C89EBB",
"V. c #CBA5B5",
"C. c #CCA3BC",
"Z. c #CFA8B8",
"A. c #C5A2B4",
"S. c #D2ABBD",
"D. c #C4B2BE",
"F. c #BC8CC3",
"G. c #B887C1",
"H. c #BE97C9",
"J. c #C394C3",
"K. c #C699C3",
"L. c #CA9CC4",
"P. c #C79CCC",
"I. c #C59CD2",
"U. c #CEA2C3",
"Y. c #C7A4CC",
"T. c #D1A5C4",
"R. c #D5AAC5",
"E. c #D6ACC5",
"W. c #D5AAC4",
"Q. c #D9AFC5",
"!. c #D7AAC9",
"~. c #CBBDCA",
"^. c #C9B6C5",
"/. c #DAB1C5",
"(. c #DCB3C6",
"). c #DEB5C6",
"_. c #DFB6C6",
"`. c #DDB4C6",
"'. c #DDB4C6",
"]. c #DDB4C9",
"[. c #D4B9C7",
"{. c #CCA7D5",
"}. c #D4B1DA",
"|. c #D9B7D9",
" X c #E0B7C6",
".X c #E1B7C9",
"XX c #E2B9CA",
"oX c #E1B8C7",
"OX c #E1BAD1",
"+X c #DDBDE4",
"@X c #D4C3D3",
"#X c #DCCCDB",
"$X c #D7CAD6",
"%X c #DED1DD",
"&X c #D1C3CF",
"*X c #E8C9DD",
"=X c #E5D1DF",
"-X c #DFC1E6",
";X c #E4CAE7",
":X c #E5D3E3",
">X c #EED2E4",
",X c #ECDBEB",
"<X c #E9D8E8",
"1X c #F5DAEA",
"2X c #F0D4E4",
"3X c #EDD7F1",
"4X c #F5DEF3",
"5X c #F3E3F3",
"6X c #FDEDFD",
"7X c #F7E5F7",
"8X c #FFF2FF",
/* pixels */
"                                          _._.                                           X.X X).).                              ",
"                                                                                      /.L.[ ] K./.                              ",
"                        ).                                                            U.#.q 7 <.E.                              ",
").).          ).                <.<.    _.        _._.      ).        ).          (.U.&.1 . w <.E.        ).).  ).              ",
").).). X                                  ).).                          ).       XL. .2 + . w <.E.).).                          ",
").T.K.K.E.                                ).                T.            ).  /.L._ t + # . q 2.E.).                            ",
").L.j.2.L.R.R.          _.      /.).    ).      <.          T.3.    2.    ).).U.$.q . o + + q 2.E.                ).).          ",
"  ).T.<.,.,.j.Q.(.].          <.T.).                                  ).).).U.&.> + o o o . q <.E.    <.                        ",
"   XT.<.d 1 a j.F.L. X).).                       X'.). X).).). X)._..X.XoXL. .2 + + o o + . q <.E.            <.        ).      ",
"   XT.1.1 . & N B  .L.L./.).                  .XL.L.L.L.L.L.L.L.L.0.P U U K t + + + + o O . q 2.E.                              ",
"    R.h.3 + + . . t ....N.W.W.        W.W.W.C.a.X...} } } } } } ..a . . . . + . + + + + O * l l.E.      W.        ).).          ",
"      S.0 + + + # @ $ * ) <.j./.(.(.T.<.<.<.) & $ $ $ $ $ $ $ $ $ + + + . + + + + + + + . D l.Q.        2.    #                 ",
"      (.&.p + + + + o o 1 3 z S.K.J.X.7 4 4 1 # . o o o . + . o + + + + + . + + + + + + . F F.Q.      (.              ). X).    ",
"      (.F.B . + o o o o . 5 Y M.~ B p + . . + o o o o o + + o o + + + + + + + . + + + + + D J. X                    F.L.L.E.).  ",
"      (.F.N . + + + o o > Y L...1 . . + + + + + # # o # + . . + + + + . + + + + + + + . . F J.Q.          T.W.S.f.O...#.1.L. X  ",
"      (.F.B + + + + . $ 8.N...= + + + + + + # o + # # # + + + + + . + + + . + + + . + + + D l.Q.).(.'.W.j.1.<.$.< % % 2 ;.      ",
"    j.  T.r.D $ o # + +  .( 1 + + + + . + + + . + + . + + + + + # # # # # # # # + + . + + - Z l.F.F.O.i 7 7 7 1 + . 7 | B.      ",
"         XL.} $ o o & A ;.C . + . + + + + + + + + + + + + . + . # # # # # # # # . + + + + . : V C D a O . + . + o q ~ L.(.      ",
"        ).L.{ $ o o 3 N.O.p + + + + + + + + + + + . . + + . + + + # # # # O . # + + . + + + o + . + O # o + # # + ( L. X        ",
"        ).L.} $ o + 7 #.7 + + + + + . + + + . + + + + + + + + + + + # O @ * % % + + @ $ + + o . + # # # + # + # & 8.XX          ",
" X        ].0.$ . a ^ 1 $ o + # + + + + + + + + + + . + + # # + + + . @ G ....) = . 4 / - . + + + + + + . + o * / B..X  .X      ",
" XL.J.XX XoXA.D = N #.$ + o + # + + . + . + . + + + + + + + + # . q C D Y.+X-X{.> . w ;.- + + + + + + + + . : G M.W.            ",
" Xy._ 0.C.T.L.2.4 t F + + + # # + . . + + . + + + + + + # + # + 8 ` I.I.4X8X8X<X5 . u k.> X # # + + + + + - N l./.              ",
".XU % % ^ 1.>.%.3 + + + + + # # + + + + + + + + + + + + + + # : q.2X6X6X8X8X8X:X5 . m :X6 + # # . + + . . C l./.                ",
"  m.[ $ - > 1 > $ . # # # # # # + + + + # # # # + + + + # . 6 a.>X6X8X6X8X8X5XS.< . c :X6 X o # O + O O . U Q.    # .   ).      ",
"  XXq.@ . X . X + . . . X # # # + . . + # # # # + # + + . q ` <X6X8X6X8X6X8X3Xz.: h p.<X6 X o o + + . @ s u.oX  ).v             ",
"    q.0 % . O + + 5 j h * X # # + . + + # + + # + + + + 1 ! +X6X6X8X6X6X6X7X[.Q * [ 1X,X6 . X o O . $ e :.U.).  ).              ",
"      S.e + + + X P 5X5Xx % % @ + + + + + # + + + + + = } }.3X7X6X6X8X6X6X>X[ $ $ i.6X:X6 X X X # . q 1.T././.        ).        ",
" X    /.-.a . + X V {.6X%X&X^.} 1 . # # # # # + + . 1 ..;X6.c H.4X6X8X6X6X}.~ * [ =X3Xk.> . + + # . q <.G.G.J.(. X              ",
"        L.S . + X 5 ! 5X8X8X7X+Xp.Y p # . # # # + q ` }.6.' ' M #X8X8X8X;X| w ; [.6X[.s $ . + . # + - M M l H M.L.T. X          ",
"        XX] > + X . 6 ;X6X6X6X6X4XY.Q h 7 * # # . a g.,X6 L n.x #X7X3X;X&.7 . ; =X6Xv.+ o o + + + + + . . . 1 ^ { z.Q.).        ",
"   X).  .XK./ @ X X 1 >.#X6X8X6XH.D c %XF.M + # + + j %Xf % x <X6X{.1.>.y @ # 6 =X>X8.+ # # + + . + + + $ % $ $ * ^ J.).).      ",
" X(. X.X.XK./ $ + o @ 5 6 7.8X7XA P v.x |.H.D @ # O % f W } *.H.I.E , 4 v.x h @X7X+X^ @ . + + + . . . $ [ s.Y = ~ M.Q. X        ",
"(.T.J.K.K.F.>.C * 0 n $ . S ;X7Xv.4.A @ L P p # # # # # d V M M M 2 X @ &X6.) +X7Xt.q # + + + + + g S C l.P.y.R M.T.            ",
" XL.j.<.../ / / > v 5.0 @ p O.^.:Xe.1 1 @ X # # # # # # # X @ 1 @ X X @ ~.-Xj.#.,XL . + + + + + . Y U.3.../ -.W. X              ",
"  (.T.<.q % $ @ @ + 6 s.f @ @ & ) 1.*.#.; X # # # # # # # X 4 =.4 @ X % ~.8Xn.5 #XI . + + . + # $ G 2.*.1 + q ,.E.       X      ",
"      T.-.p . + + + $ 8 [ n o o : 2 2 2 @ X # # # X o o X . f :X$XI . $ ~.8Xn.; ,.l + + + o + % [ h.| 2 @ . @ u Z..X).).        ",
"        T.-.M + . + . + 0 T p.[ E y # @ 6.@.s + + A i.7., X f 5X1X^.' % ~.5X0.@ w : + + + o . % -.( 4 o + + . ; V.L.J.J./.      ",
"         XT.:.k % . + + . c D.*X}.! . ; $X;X6.+ X 6.8X7XP 6 f 5Xq.~.#XL #X;X' # . . + . . O ; v ;.d . o . . & n N.X.Q ) N.R.    ",
"        Q.Q.Q.S.i % % + X . 9 *X6Xw.@ ; @X8X^., X 6.8X8X5X4.c ,Xr ' 6X6X6XY.F # + + + + + . i S.:.a . o + . r C.;.w . - ..N.(.  ",
"      (.F.j.j.j.*.%.~ @ O . $ 5 ~.5Xp.; d.1X7X$X6 6.8X6XY.{.<X5Xr Z {.6X6XP % O O # # # . . i V.0 $ + + + . 7 %.3 $ o + : ) J. X",
"    Q.F.C a a a a a s G ` j . + x n.<Xw.A a.1X5X0.^.8X5XJ i.8X5Xf : z L :XL . O # # + . . t | h.> . . + . e / $.% X # + o E J.(.",
"  W.x.Q - . . . . . = ~ [ U 7 + . x ~.=X8 S @X7Xa.~.8X5X9 A &X5Xf . # @ b.A . # + . * h g +.h.G = + + $ 0 _ >.F $ o # + + E J.(.",
").L.{ $ o # # # O O O O + s / : + # f s.< N H.,X9 5.6X,X9 X f &X6 . # @ ^ t . # & % k Q.E. X8.$ + + + 5 s.l.E @ # # # + % ~ J.(.",
".XK./ $ o o # + . . O . . $ e q.8 . $ < @ $ v S.6 K P./.8 . $ 6 @ + + + ; @ + & 9.:.;.l.j.T.9.+ + . 0 s.F.C * + + . . * / M.Q.  ",
".XL.{ + . . ; Y T R R R R T [ l.8 . X . X . ; v % 1 l v % . X o + + X + . . 6 ] M.( a s *.( i o . e  .Q.G.s . + . . 2 E <.T. X  ",
" XU.-.w $ < S C.R.m.9.9.8.s.U.k.Z - o o . X . . . + . . o o # + # # + @ 6 e b 9.^ 7 $ t ,.l . o 7 _ K.B. .q . @ 7 q D <./ z.W.  ",
"(. XW.,.7 L T.;.;.N $ & & C F.R.F.D $ + % $ # X # o o o o o # # + + + ; a.k.G + + o w <.E.n . - o.L.T.>.> + # 1 ;.<.1.} = F l._.",
"   X(.W.m.x.&.2 : $ : } u.A.T.G.2.1.F & 8.v . o o o o o o # # # o o 8 u.l.N * + o . w 2.Q.v 2 $.B.].T.>.> . 2 $.C.J.~ = + % S Q.",
"     X).L. .e + . 4 ~ B.(.W.J.2.C E ;.R l.0.n o . . + o o o # # . 0 [ M.F : . O o t _ L. X+.) L. XT.:.a $ w _ B.J.H 7 + O . j  X",
"      U.X.t . + 1 W J.(.T.r.^ ^ p G J.C. .r.u.g i e 1 o X X o + 8 ] N.^ - . + + + H L. X XL.L. XT.-.N + 0 _ J.B./ 2 . + + > K '.",
"    U.*.2 + . @ / J.)./.j.N @ * _ K.L.%.: D F.Q./.N.{ = % @ X $ q.L./ % o o + + % ]  XQ.S.V.Z.V.j.N % < s.(.U...= + o + % ~ j.  ",
"  F.O.1 @ . . @ / L.Q.2.a $ : { N.L.X.1 + D F.).  Q.S.s.&.a . $ q.L.} $ + + . % ^ N.T.,.r 3 3 0 %.;.&.s.Q.L. .1 # + . * ^ M.Q. X",
"  3.{ # + . * D h.L.r.b & . 5 M.L. .w # . J T.    ).).  L.0.n % q.L./ + + . . % $.F.-.a + . . o p s Y  XL._ w . O p J ] N.R.    ",
"  F.-.q @ = s l.T.r.F + . = l B.O.a . + 2 [ XX      ).  T.OXA.p m.L.#.w $ . % y :.F. .7 7 7 > + . . 6 9.l.b + 7 r +.L.oX X      ",
"    T.,.e C l.T.,.M + o . M 1.X.4 + + % ..L. X          <.|.;XG.T.L.2.>.e = d <.E.V.x.h.2.2._ > - $ + & 9.S u <.U.Q.).).        ",
"      E.,.l.T.g.e $ + . + N X.: # o # % #.                ].XX    Q.T.<.>.%.>.j.W.n v S.(.(.B.;.;.a # # & Y S.T.l.T. X  ).      ",
"              1.2 . + + N B 7 + o . 1 ~ M.    ).      _.              T.U.U.T.N.n : & m Z.*X;XT.T.O.Q E E u. X(.T.T.            ",
"              1.2 + + $ } C . O o . 7 j.W.    ).      _.               X XW.x.Y % . . % u.*X2X(.T.J.J.J.J.T. X).(.              ",
"              <.t = = : X.G * + X @ a j.E.                              (.J.~ ; - @ + * ) N. X  <.L. X).).).).                  ",
"              E.,.%.%.*.B.M.^ % X a g.W.                    ).  .X            m.:.t o # * [ oX          ).).          ).        ",
"                T.U.U.T.  E.l.~ E &.T.              _.                            +.] G $ J L.).          ).                    ",
"                  _. X).    Q.J.J.L.                                                !.,.b +.L.).                                ",
"                               X_._.                                                    (.(.).).).                              "
};
